<svg xmlns="http://www.w3.org/2000/svg" version="1.1" xmlns:xlink="http://www.w3.org/1999/xlink" xmlns:svgjs="http://svgjs.com/svgjs" width="1000" height="1000"><rect width="1000" height="1000" rx="200" ry="200" fill="#ffffff"></rect><g transform="matrix(0.9,0,0,0.9,47.42254943847655,139.97359619140622)"><svg xmlns="http://www.w3.org/2000/svg" version="1.1" xmlns:xlink="http://www.w3.org/1999/xlink" xmlns:svgjs="http://svgjs.com/svgjs" width="1000" height="800"><svg width="1000" height="800" xmlns="http://www.w3.org/2000/svg">
 <g>
  <title>Layer 1</title>
  <path transform="rotate(-90 474.225 399.736)" fill="#000" d="m125.17512,405.67c-167.975,-449.009 310.107,-578.221 497.464,-329.489c167.975,239.041 227.315,436.637 226.12,436.088c-161.514,-100.139 -74.297,197.047 9.691,335.949c0,-14.827 -239.041,-235.811 -222.89,-29.073c-15.958,-79.336 -299.447,-294.699 -268.114,-138.902c9.723,-20.545 -174.435,-135.672 -242.271,-274.574l0,0.001zm439.318,-216.429c-0.226,-19.705 -4.555,-39.474 -10.854,-58.145c-7.785,-23.193 -20.545,-42.93 -36.793,-61.085c-20.642,-23.064 -40.96,-36.47 -68.644,-49.456c-31.948,-14.989 -62.021,-19.059 -96.908,-18.671c-138.773,1.647 -242.723,145.653 -178.279,274.574c31.754,63.507 90.997,97.328 158.898,108.441c120.683,14.924 234.002,-69.419 232.58,-195.658z" id="svg_1"></path>
 </g>

</svg></svg></g></svg>