<?xml version="1.0" standalone="no"?>
<!DOCTYPE svg PUBLIC "-//W3C//DTD SVG 20010904//EN"
 "http://www.w3.org/TR/2001/REC-SVG-20010904/DTD/svg10.dtd">
<svg version="1.0" xmlns="http://www.w3.org/2000/svg"
 width="1000.000000pt" height="1000.000000pt" viewBox="0 0 1000.000000 1000.000000"
 preserveAspectRatio="xMidYMid meet">
<metadata>
Created by potrace 1.14, written by Peter Selinger 2001-2017
</metadata>
<g transform="translate(0.000000,1000.000000) scale(0.100000,-0.100000)"
fill="#000000" stroke="none">
<path d="M9086 8763 c-27 -14 -56 -31 -64 -39 -7 -8 -22 -14 -32 -14 -10 0
-20 -4 -22 -8 -1 -4 -57 -35 -123 -67 -66 -33 -123 -64 -127 -70 -4 -5 -8 -6
-8 -1 0 5 -9 1 -20 -9 -11 -10 -20 -15 -20 -10 0 4 -11 0 -25 -9 -13 -9 -31
-16 -40 -16 -8 0 -15 -3 -15 -7 0 -5 -21 -17 -48 -27 -26 -11 -73 -32 -104
-47 -31 -15 -59 -24 -62 -21 -4 3 -6 0 -6 -6 0 -7 -3 -11 -7 -10 -8 1 -28 -6
-106 -40 -23 -10 -62 -27 -87 -36 -25 -10 -58 -24 -75 -32 -46 -20 -175 -67
-335 -123 -80 -28 -158 -56 -175 -62 -16 -6 -34 -11 -40 -13 -5 -1 -55 -16
-110 -34 -85 -26 -348 -98 -395 -107 -8 -2 -15 -4 -15 -5 0 -1 -10 -3 -22 -6
-12 -2 -63 -13 -113 -24 -50 -11 -108 -23 -128 -26 -20 -2 -48 -7 -62 -9 -14
-3 -43 -7 -65 -11 -22 -3 -47 -7 -55 -9 -66 -17 -411 -25 -500 -12 -97 14
-125 20 -137 30 -7 5 -13 6 -13 2 0 -4 -7 -2 -15 5 -8 7 -15 10 -15 6 0 -8
-60 22 -82 42 -10 8 -18 12 -18 7 0 -4 -20 13 -45 37 -25 25 -45 53 -45 62 0
9 -4 16 -10 16 -5 0 -10 9 -10 19 0 11 -4 22 -9 25 -17 11 -17 166 0 229 6 23
13 50 15 60 9 48 125 292 145 307 9 6 15 35 9 39 -6 5 -178 -46 -204 -60 -10
-6 -26 -12 -35 -14 -9 -2 -54 -17 -101 -34 -105 -39 -114 -42 -120 -43 -3 -1
-93 -37 -200 -81 -107 -43 -199 -80 -205 -81 -5 -1 -17 -6 -25 -11 -8 -5 -19
-10 -25 -11 -5 -1 -37 -14 -70 -29 -33 -14 -73 -32 -90 -40 -29 -13 -83 -37
-175 -78 -25 -11 -47 -21 -50 -22 -3 0 -26 -11 -52 -23 -26 -12 -51 -22 -56
-22 -5 0 -15 -7 -22 -15 -7 -9 -15 -13 -17 -11 -3 3 -24 -6 -48 -20 -24 -13
-51 -24 -59 -24 -9 0 -16 -4 -16 -10 0 -5 -6 -10 -13 -10 -7 0 -39 -13 -70
-30 -32 -16 -64 -30 -72 -30 -7 0 -15 -3 -17 -7 -1 -5 -86 -50 -188 -101 -300
-150 -697 -361 -790 -421 -14 -8 -27 -16 -30 -16 -3 0 -33 -17 -68 -38 -35
-20 -67 -37 -73 -37 -5 0 -9 -4 -9 -10 0 -5 -5 -10 -11 -10 -6 0 -24 -9 -40
-21 -16 -11 -29 -18 -29 -14 0 3 -6 1 -13 -5 -21 -18 -78 -53 -192 -119 -60
-36 -111 -68 -113 -73 -2 -4 -10 -8 -17 -8 -8 0 -20 -6 -27 -12 -8 -7 -24 -19
-36 -25 -57 -33 -67 -39 -76 -46 -6 -4 -36 -23 -66 -42 -30 -19 -60 -39 -67
-45 -7 -5 -16 -10 -22 -10 -5 0 -11 -3 -13 -8 -2 -6 -62 -45 -163 -105 -11 -7
-22 -14 -25 -18 -7 -7 -212 -143 -225 -148 -5 -2 -14 -8 -20 -13 -5 -5 -75
-54 -154 -108 -223 -155 -275 -198 -451 -372 -150 -149 -240 -253 -336 -388
-21 -30 -42 -59 -47 -65 -4 -5 -20 -30 -36 -55 -84 -135 -110 -180 -130 -220
-12 -25 -26 -52 -31 -60 -24 -37 -126 -270 -151 -345 -8 -22 -16 -42 -19 -45
-3 -3 -6 -12 -8 -20 -2 -7 -21 -75 -43 -150 -22 -74 -42 -148 -45 -165 -2 -16
-7 -38 -10 -47 -3 -9 -7 -26 -9 -37 -3 -12 -7 -31 -10 -43 -3 -13 -7 -41 -10
-63 -2 -22 -6 -49 -9 -60 -2 -11 -7 -42 -10 -70 -4 -27 -9 -66 -11 -85 -21
-158 -21 -571 1 -672 3 -13 6 -43 8 -68 2 -25 8 -72 14 -105 6 -33 13 -74 16
-92 2 -17 6 -35 9 -40 3 -4 8 -24 11 -43 3 -19 13 -62 22 -95 8 -33 17 -67 19
-75 8 -37 69 -212 102 -294 65 -163 255 -511 285 -524 5 -2 8 -10 8 -18 0 -8
4 -14 8 -14 4 0 15 -12 24 -28 17 -28 61 -83 90 -114 10 -10 18 -21 18 -24 0
-13 175 -191 268 -272 82 -72 200 -162 212 -162 5 0 10 -4 10 -8 0 -5 12 -15
28 -23 15 -8 29 -16 32 -19 9 -11 108 -68 201 -118 105 -56 250 -119 349 -152
36 -12 74 -25 85 -30 18 -7 80 -25 124 -36 9 -2 36 -8 61 -15 25 -6 54 -12 65
-15 11 -2 40 -8 65 -14 25 -5 61 -12 80 -15 19 -2 51 -7 70 -9 19 -3 55 -8 80
-11 25 -3 62 -8 83 -11 22 -3 98 -7 170 -9 73 -2 134 -5 137 -6 3 -1 9 -1 14
0 4 1 76 4 160 6 83 3 160 7 171 9 11 2 58 7 105 11 47 4 94 9 105 11 11 3 38
7 60 10 22 3 51 7 65 10 14 3 43 8 64 10 22 3 44 8 48 10 5 3 25 7 46 9 20 3
47 7 59 10 47 11 69 15 93 20 14 2 61 14 105 26 44 11 87 22 95 24 84 19 463
141 555 179 71 29 230 111 245 126 3 3 21 13 40 24 65 35 320 209 320 218 0 5
4 7 8 4 5 -3 18 3 28 13 11 10 38 31 60 47 22 16 46 35 54 41 8 7 73 60 143
119 71 58 137 113 147 122 9 10 55 51 101 92 151 135 549 538 725 735 15 17
47 53 73 81 42 46 151 168 194 218 40 45 124 139 157 175 19 21 65 72 103 114
84 94 165 176 243 244 53 47 56 52 28 44 -33 -9 -191 -7 -239 4 -60 13 -129
59 -161 106 -33 50 -47 104 -47 184 0 46 3 64 18 150 6 31 22 88 32 115 4 8 7
17 8 20 25 93 139 326 242 495 7 11 16 27 20 35 4 8 10 20 15 25 4 6 41 60 81
120 40 61 84 126 98 145 33 49 213 281 236 305 10 11 29 34 42 50 141 183 481
524 661 663 36 28 72 57 80 64 63 55 210 139 348 199 30 13 19 14 -130 14
-148 0 -281 10 -301 22 -4 2 -19 7 -34 9 -15 3 -31 8 -37 12 -6 3 -18 7 -26 9
-32 5 -124 58 -168 98 -46 41 -96 124 -108 176 -16 71 -18 169 -6 234 7 39 14
79 16 90 7 36 58 178 87 242 16 33 29 66 29 71 0 5 7 15 15 22 8 7 15 18 15
25 0 10 28 61 93 170 72 119 274 405 336 474 11 13 21 27 21 30 0 3 17 24 38
47 20 22 60 67 87 100 87 103 211 230 307 316 38 34 36 34 -26 1z m-6231
-2867 c44 -4 89 -10 99 -13 11 -3 33 -7 50 -8 33 -4 81 -13 108 -21 9 -3 25
-7 35 -9 119 -26 301 -99 453 -182 59 -32 155 -95 158 -104 2 -5 8 -9 14 -9
25 0 231 -186 332 -301 81 -92 226 -303 226 -328 0 -5 4 -11 8 -13 10 -4 112
-213 112 -231 0 -7 4 -17 9 -22 12 -14 77 -216 96 -300 2 -11 13 -68 19 -105
3 -14 7 -35 10 -47 14 -66 20 -169 20 -348 0 -219 -5 -273 -35 -405 -6 -25
-13 -56 -15 -70 -3 -14 -11 -49 -20 -77 -8 -29 -15 -56 -16 -60 -2 -13 -55
-166 -68 -198 -7 -16 -19 -46 -27 -65 -16 -36 -96 -200 -117 -235 -42 -75
-141 -219 -177 -258 -10 -11 -34 -40 -55 -65 -57 -70 -255 -248 -286 -258 -10
-3 -18 -9 -18 -14 0 -4 -46 -35 -102 -69 -57 -33 -107 -64 -113 -68 -12 -10
-202 -94 -245 -108 -3 -1 -12 -5 -20 -8 -8 -3 -40 -13 -70 -22 -30 -9 -68 -21
-84 -26 -15 -5 -32 -6 -37 -3 -5 3 -9 1 -9 -3 0 -5 -10 -9 -22 -10 -13 -1 -34
-4 -48 -7 -34 -8 -108 -18 -145 -20 -17 -1 -35 -4 -40 -7 -13 -6 -265 -3 -324
5 -86 11 -126 17 -144 22 -11 4 -29 7 -40 9 -239 37 -606 217 -833 409 -192
162 -382 396 -488 601 -12 22 -25 43 -29 46 -5 3 -8 9 -8 13 0 3 -11 32 -25
63 -61 135 -122 325 -143 448 -6 33 -13 74 -16 90 -25 133 -25 499 0 670 13
89 39 221 47 245 4 8 20 59 37 112 17 54 37 110 43 125 6 16 11 31 10 36 -1 4
2 7 8 7 5 0 10 6 10 13 0 11 35 82 107 217 38 73 84 144 94 148 5 2 9 8 9 14
0 19 118 163 211 257 96 98 271 236 386 305 77 46 249 127 274 129 11 1 19 4
19 8 0 4 12 9 28 12 15 3 77 19 137 36 61 17 130 34 155 37 25 3 48 8 51 10 3
2 41 6 85 10 43 4 80 7 81 8 5 4 206 -2 278 -8z"/>
</g>
</svg>
